<svg width="22" height="22" viewBox="0 0 22 22" fill="none" xmlns="http://www.w3.org/2000/svg">
<circle cx="11" cy="11" r="11" fill="#BDFFCB"/>
<path d="M15.7559 6.90961H15.0026V6.31258C15.0026 6.14066 14.8619 6 14.69 6C14.5181 6 14.3774 6.14066 14.3774 6.31258V6.90961H11.3141V6.31258C11.3141 6.14066 11.1735 6 11.0016 6C10.8296 6 10.689 6.14066 10.689 6.31258V6.90961H7.59442V6.31258C7.59442 6.14066 7.45376 6 7.28184 6C7.10992 6 6.96926 6.14066 6.96926 6.31258V6.90961H6.2472C5.55952 6.90961 5 7.48789 5 8.17556V15.4431C5 16.1339 5.55639 16.6934 6.2472 16.6934H15.7528C16.4436 16.6934 17 16.1339 17 15.4462V8.17556C17.0031 7.48789 16.4436 6.90961 15.7559 6.90961ZM16.378 15.4431C16.378 15.7869 16.1029 16.0651 15.759 16.0682H15.7559H6.2472C5.90336 16.0682 5.62516 15.79 5.62516 15.4462V15.4431V8.17556C5.62516 7.8286 5.90336 7.53477 6.2472 7.53477H6.96926V7.98802C6.96926 8.15993 7.10992 8.3006 7.28184 8.3006C7.45376 8.3006 7.59442 8.15993 7.59442 7.98802V7.53477H10.689V7.98802C10.689 8.15993 10.8296 8.3006 11.0016 8.3006C11.1735 8.3006 11.3141 8.15993 11.3141 7.98802V7.53477H14.3774V7.98802C14.3774 8.15993 14.5181 8.3006 14.69 8.3006C14.8619 8.3006 15.0026 8.15993 15.0026 7.98802V7.53477H15.7559C16.1029 7.53477 16.378 7.83173 16.378 8.17556V15.4431Z" fill="#287734"/>
<path d="M10.1794 9.56653H9.63241C9.46049 9.56653 9.31982 9.70719 9.31982 9.87911C9.31982 10.051 9.46049 10.1917 9.63241 10.1917H10.1794C10.3513 10.1917 10.492 10.051 10.492 9.87911C10.492 9.70719 10.3513 9.56653 10.1794 9.56653Z" fill="#287734"/>
<path d="M12.355 9.56653H11.8079C11.636 9.56653 11.4954 9.70719 11.4954 9.87911C11.4954 10.051 11.636 10.1917 11.8079 10.1917H12.355C12.5269 10.1917 12.6675 10.051 12.6675 9.87911C12.6675 9.70719 12.53 9.56653 12.355 9.56653Z" fill="#287734"/>
<path d="M14.5495 9.56653H14.0025C13.8306 9.56653 13.6899 9.70719 13.6899 9.87911C13.6899 10.051 13.8306 10.1917 14.0025 10.1917H14.5495C14.7215 10.1917 14.8621 10.051 14.8621 9.87911C14.8621 9.70719 14.7215 9.56653 14.5495 9.56653Z" fill="#287734"/>
<path d="M10.1794 11.7234H9.63241C9.46049 11.7234 9.31982 11.8641 9.31982 12.036C9.31982 12.2079 9.46049 12.3486 9.63241 12.3486H10.1794C10.3513 12.3486 10.492 12.2079 10.492 12.036C10.492 11.8641 10.3513 11.7234 10.1794 11.7234Z" fill="#287734"/>
<path d="M7.98846 11.7234H7.43831C7.26639 11.7234 7.12573 11.8641 7.12573 12.036C7.12573 12.2079 7.26639 12.3486 7.43831 12.3486H7.98533C8.15725 12.3486 8.29791 12.2079 8.29791 12.036C8.29791 11.8641 8.16038 11.7234 7.98846 11.7234Z" fill="#287734"/>
<path d="M12.355 11.7234H11.8079C11.636 11.7234 11.4954 11.8641 11.4954 12.036C11.4954 12.2079 11.636 12.3486 11.8079 12.3486H12.355C12.5269 12.3486 12.6675 12.2079 12.6675 12.036C12.6675 11.8641 12.53 11.7234 12.355 11.7234Z" fill="#287734"/>
<path d="M14.5495 11.7234H14.0025C13.8306 11.7234 13.6899 11.8641 13.6899 12.036C13.6899 12.2079 13.8306 12.3486 14.0025 12.3486H14.5495C14.7215 12.3486 14.8621 12.2079 14.8621 12.036C14.8621 11.8641 14.7215 11.7234 14.5495 11.7234Z" fill="#287734"/>
<path d="M10.1794 13.849H9.63241C9.46049 13.849 9.31982 13.9897 9.31982 14.1616C9.31982 14.3335 9.46049 14.4742 9.63241 14.4742H10.1794C10.3513 14.4742 10.492 14.3335 10.492 14.1616C10.492 13.9897 10.3513 13.849 10.1794 13.849Z" fill="#287734"/>
<path d="M7.98846 13.849H7.43831C7.26639 13.849 7.12573 13.9897 7.12573 14.1616C7.12573 14.3335 7.26639 14.4742 7.43831 14.4742H7.98533C8.15725 14.4742 8.29791 14.3335 8.29791 14.1616C8.29791 13.9897 8.16038 13.849 7.98846 13.849Z" fill="#287734"/>
<path d="M12.355 13.849H11.8079C11.636 13.849 11.4954 13.9897 11.4954 14.1616C11.4954 14.3335 11.636 14.4742 11.8079 14.4742H12.355C12.5269 14.4742 12.6675 14.3335 12.6675 14.1616C12.6675 13.9897 12.53 13.849 12.355 13.849Z" fill="#287734"/>
</svg>
